<?xml version="1.0" encoding="utf-8"?>
<!-- Generator: Adobe Illustrator 18.1.1, SVG Export Plug-In . SVG Version: 6.00 Build 0)  -->
<!DOCTYPE svg PUBLIC "-//W3C//DTD SVG 1.1//EN" "http://www.w3.org/Graphics/SVG/1.1/DTD/svg11.dtd">
<svg version="1.1" id="Layer_1" xmlns="http://www.w3.org/2000/svg" xmlns:xlink="http://www.w3.org/1999/xlink" x="0px" y="0px"
	 width="1600px" height="1040px" viewBox="0 0 1600 1040" enable-background="new 0 0 1600 1040" xml:space="preserve">
<rect x="75" y="73.11129" opacity="0.5" fill="none" stroke="#6882E0" stroke-width="4" stroke-linejoin="round" stroke-miterlimit="10" width="30" height="30"/>
<rect x="892.4591064" y="461.5918884" opacity="0.5" fill="none" stroke="#6882E0" stroke-width="4" stroke-linejoin="round" stroke-miterlimit="10" width="30" height="30"/>
<rect x="314.8963318" y="578.5858765" opacity="0.5" fill="none" stroke="#6882E0" stroke-width="4" stroke-linejoin="round" stroke-miterlimit="10" width="30" height="30"/>
<rect x="1426.3406982" y="110.6093979" opacity="0.5" fill="none" stroke="#6882E0" stroke-width="4" stroke-linejoin="round" stroke-miterlimit="10" width="30" height="30"/>
<rect x="967.3637085" y="707.5810547" opacity="0.5" fill="none" stroke="#6882E0" stroke-width="4" stroke-linejoin="round" stroke-miterlimit="10" width="30" height="30"/>
<polyline opacity="0.5" fill="none" stroke="#739AEF" stroke-width="4" stroke-linecap="round" stroke-linejoin="round" stroke-miterlimit="10" points="
	559.6014404,440.0934448 569.6014404,440.0934448 569.6014404,450.0934448 579.6014404,450.0934448 579.6014404,460.0934448 
	589.6014404,460.0934448 589.6014404,470.0934448 "/>
<polyline opacity="0.5" fill="none" stroke="#739AEF" stroke-width="4" stroke-linecap="round" stroke-linejoin="round" stroke-miterlimit="10" points="
	154.9654388,748.0760498 164.9654388,748.0760498 164.9654388,758.0760498 174.9654388,758.0760498 174.9654388,768.0760498 
	184.9654388,768.0760498 184.9654388,778.0760498 "/>
<polyline opacity="0.5" fill="none" stroke="#739AEF" stroke-width="4" stroke-linecap="round" stroke-linejoin="round" stroke-miterlimit="10" points="
	1456.3408203,838.0759888 1466.3408203,838.0759888 1466.3408203,848.0759888 1476.3408203,848.0759888 1476.3408203,858.0759888 
	1486.3408203,858.0759888 1486.3408203,868.0759888 "/>
<polyline opacity="0.5" fill="none" stroke="#739AEF" stroke-width="4" stroke-linecap="round" stroke-linejoin="round" stroke-miterlimit="10" points="
	1254.5661621,95.6094055 1264.5661621,95.6094055 1264.5661621,105.6094055 1274.5661621,105.6094055 1274.5661621,115.6094055 
	1284.5661621,115.6094055 1284.5661621,125.6094055 "/>
<polyline opacity="0.5" fill="none" stroke="#739AEF" stroke-width="4" stroke-linecap="round" stroke-linejoin="round" stroke-miterlimit="10" points="
	907.4591675,921.7791748 917.4591675,921.7791748 917.4591675,931.7791748 927.4591675,931.7791748 927.4591675,941.7791748 
	937.4591675,941.7791748 937.4591675,951.7791748 "/>
<polygon opacity="0.5" fill="none" stroke="#52C5FF" stroke-width="4" stroke-linejoin="round" stroke-miterlimit="10" points="
	907.4591675,282.2063293 922.4591675,252.2063141 937.4591675,282.2063293 "/>
<polygon opacity="0.5" fill="none" stroke="#52C5FF" stroke-width="4" stroke-linejoin="round" stroke-miterlimit="10" points="
	399.827179,140.6094055 414.827179,110.6094131 429.827179,140.6094055 "/>
<polygon opacity="0.5" fill="none" stroke="#52C5FF" stroke-width="4" stroke-linejoin="round" stroke-miterlimit="10" points="
	1456.3406982,692.5811157 1471.3406982,662.5811157 1486.3406982,692.5811157 "/>
<polygon opacity="0.5" fill="none" stroke="#52C5FF" stroke-width="4" stroke-linejoin="round" stroke-miterlimit="10" points="
	696.1507568,838.0760498 711.1507568,808.0760498 726.1507568,838.0760498 "/>
<circle opacity="0.5" fill="none" stroke="#27AAE1" stroke-width="4" stroke-linejoin="round" stroke-miterlimit="10" cx="1284.5662842" cy="565.0881958" r="15"/>
<circle opacity="0.5" fill="none" stroke="#27AAE1" stroke-width="4" stroke-linejoin="round" stroke-miterlimit="10" cx="559.6014404" cy="300.5188599" r="15"/>
<circle opacity="0.5" fill="none" stroke="#27AAE1" stroke-width="4" stroke-linejoin="round" stroke-miterlimit="10" cx="105" cy="491.5918579" r="15"/>
<circle opacity="0.5" fill="none" stroke="#27AAE1" stroke-width="4" stroke-linejoin="round" stroke-miterlimit="10" cx="59.9999962" cy="995.5666504" r="15"/>
<circle opacity="0.5" fill="none" stroke="#27AAE1" stroke-width="4" stroke-linejoin="round" stroke-miterlimit="10" cx="1074.5766602" cy="125.6093979" r="15"/>
<g opacity="0.5">
	
		<line fill="none" stroke="#07DBD0" stroke-width="4" stroke-linecap="round" stroke-linejoin="round" stroke-miterlimit="10" x1="117.6230545" y1="293.3104248" x2="125.4147186" y2="293.3104248"/>
	
		<line fill="none" stroke="#07DBD0" stroke-width="4" stroke-linecap="round" stroke-linejoin="round" stroke-miterlimit="10" x1="132.6231537" y1="278.3104858" x2="132.6231537" y2="286.1021423"/>
	
		<line fill="none" stroke="#07DBD0" stroke-width="4" stroke-linecap="round" stroke-linejoin="round" stroke-miterlimit="10" x1="147.6230927" y1="293.3105774" x2="139.8314362" y2="293.3105774"/>
	
		<line fill="none" stroke="#07DBD0" stroke-width="4" stroke-linecap="round" stroke-linejoin="round" stroke-miterlimit="10" x1="132.6229858" y1="308.3105164" x2="132.6229858" y2="300.5188599"/>
</g>
<g opacity="0.5">
	
		<line fill="none" stroke="#07DBD0" stroke-width="4" stroke-linecap="round" stroke-linejoin="round" stroke-miterlimit="10" x1="1276.7745361" y1="951.7791138" x2="1284.5661621" y2="951.7791138"/>
	
		<line fill="none" stroke="#07DBD0" stroke-width="4" stroke-linecap="round" stroke-linejoin="round" stroke-miterlimit="10" x1="1291.7746582" y1="936.7791748" x2="1291.7746582" y2="944.5708618"/>
	
		<line fill="none" stroke="#07DBD0" stroke-width="4" stroke-linecap="round" stroke-linejoin="round" stroke-miterlimit="10" x1="1306.7745361" y1="951.7792969" x2="1298.9829102" y2="951.7792969"/>
	
		<line fill="none" stroke="#07DBD0" stroke-width="4" stroke-linecap="round" stroke-linejoin="round" stroke-miterlimit="10" x1="1291.7744141" y1="966.7792358" x2="1291.7744141" y2="958.9876099"/>
</g>
<g opacity="0.5">
	
		<line fill="none" stroke="#07DBD0" stroke-width="4" stroke-linecap="round" stroke-linejoin="round" stroke-miterlimit="10" x1="800" y1="608.5858154" x2="807.791687" y2="608.5858154"/>
	
		<line fill="none" stroke="#07DBD0" stroke-width="4" stroke-linecap="round" stroke-linejoin="round" stroke-miterlimit="10" x1="815.0001221" y1="593.5858765" x2="815.0001221" y2="601.3775635"/>
	
		<line fill="none" stroke="#07DBD0" stroke-width="4" stroke-linecap="round" stroke-linejoin="round" stroke-miterlimit="10" x1="830.000061" y1="608.5859985" x2="822.208374" y2="608.5859985"/>
	
		<line fill="none" stroke="#07DBD0" stroke-width="4" stroke-linecap="round" stroke-linejoin="round" stroke-miterlimit="10" x1="814.999939" y1="623.5859375" x2="814.999939" y2="615.7943115"/>
</g>
<g opacity="0.5">
	
		<line fill="none" stroke="#07DBD0" stroke-width="4" stroke-linecap="round" stroke-linejoin="round" stroke-miterlimit="10" x1="1485.5546875" y1="44.6140442" x2="1493.3463135" y2="44.6140442"/>
	
		<line fill="none" stroke="#07DBD0" stroke-width="4" stroke-linecap="round" stroke-linejoin="round" stroke-miterlimit="10" x1="1500.5546875" y1="29.6141014" x2="1500.5546875" y2="37.4057693"/>
	
		<line fill="none" stroke="#07DBD0" stroke-width="4" stroke-linecap="round" stroke-linejoin="round" stroke-miterlimit="10" x1="1515.5546875" y1="44.6142082" x2="1507.7630615" y2="44.6142082"/>
	
		<line fill="none" stroke="#07DBD0" stroke-width="4" stroke-linecap="round" stroke-linejoin="round" stroke-miterlimit="10" x1="1500.5545654" y1="59.614151" x2="1500.5545654" y2="51.8224831"/>
</g>
<g opacity="0.5">
	
		<line fill="none" stroke="#6BBCED" stroke-width="4" stroke-linecap="round" stroke-linejoin="round" stroke-miterlimit="10" x1="486.6053772" y1="623.5859375" x2="516.6053467" y2="653.5859375"/>
	
		<line fill="none" stroke="#6BBCED" stroke-width="4" stroke-linecap="round" stroke-linejoin="round" stroke-miterlimit="10" x1="486.6053772" y1="653.5859375" x2="516.6053467" y2="623.5859375"/>
</g>
<g opacity="0.5">
	
		<line fill="none" stroke="#6BBCED" stroke-width="4" stroke-linecap="round" stroke-linejoin="round" stroke-miterlimit="10" x1="1202.0695801" y1="343.9968567" x2="1232.0695801" y2="373.9968567"/>
	
		<line fill="none" stroke="#6BBCED" stroke-width="4" stroke-linecap="round" stroke-linejoin="round" stroke-miterlimit="10" x1="1202.0695801" y1="373.9968567" x2="1232.0695801" y2="343.9968567"/>
</g>
<g opacity="0.5">
	
		<line fill="none" stroke="#6BBCED" stroke-width="4" stroke-linecap="round" stroke-linejoin="round" stroke-miterlimit="10" x1="815.000061" y1="73.11129" x2="845.000061" y2="103.11129"/>
	
		<line fill="none" stroke="#6BBCED" stroke-width="4" stroke-linecap="round" stroke-linejoin="round" stroke-miterlimit="10" x1="815.000061" y1="103.11129" x2="845.000061" y2="73.11129"/>
</g>
<g opacity="0.5">
	
		<line fill="none" stroke="#6BBCED" stroke-width="4" stroke-linecap="round" stroke-linejoin="round" stroke-miterlimit="10" x1="264.9309082" y1="973.0662842" x2="294.9309082" y2="1003.0662842"/>
	
		<line fill="none" stroke="#6BBCED" stroke-width="4" stroke-linecap="round" stroke-linejoin="round" stroke-miterlimit="10" x1="264.9309082" y1="1003.0662842" x2="294.9309082" y2="973.0662842"/>
</g>
<polygon opacity="0.5" fill="none" stroke="#007EE5" stroke-width="4" stroke-linejoin="round" stroke-miterlimit="10" points="
	494.1053772,884.4453125 486.6053772,869.4453125 494.1053772,854.4453125 509.1053772,854.4453125 516.6053467,869.4453125 
	509.1053772,884.4453125 "/>
<polygon opacity="0.5" fill="none" stroke="#007EE5" stroke-width="4" stroke-linejoin="round" stroke-miterlimit="10" points="
	663.5964966,155.6094208 656.0964966,140.6094208 663.5964966,125.6094284 678.5964966,125.6094284 686.0964966,140.6094208 
	678.5964966,155.6094208 "/>
<polygon opacity="0.5" fill="none" stroke="#007EE5" stroke-width="4" stroke-linejoin="round" stroke-miterlimit="10" points="
	1427.3580322,403.9968567 1419.8580322,388.9968567 1427.3580322,373.9968567 1442.3580322,373.9968567 1449.8580322,388.9968567 
	1442.3580322,403.9968567 "/>
<polygon opacity="0.5" fill="none" stroke="#007EE5" stroke-width="4" stroke-linejoin="round" stroke-miterlimit="10" points="
	1179.5695801,748.0760498 1172.0695801,733.0760498 1179.5695801,718.0760498 1194.5695801,718.0760498 1202.0695801,733.0760498 
	1194.5695801,748.0760498 "/>
<polygon opacity="0.5" fill="none" stroke="#007EE5" stroke-width="4" stroke-linejoin="round" stroke-miterlimit="10" points="
	227.4309082,403.9968567 219.9309082,388.9968567 227.4309082,373.9968567 242.4309082,373.9968567 249.9309082,388.9968567 
	242.4309082,403.9968567 "/>
</svg>
